<?xml version="1.0" encoding="utf-8"?>
<svg version="1.1" id="Layer_1" xmlns="http://www.w3.org/2000/svg" xmlns:xlink="http://www.w3.org/1999/xlink" x="0px" y="0px"
	 viewBox="0 0 55 60" style="enable-background:new 0 0 55 60;" xml:space="preserve">
<style type="text/css">
	.st0{fill:#B8DEFB;}
	.st1{fill:#083650;}
	.st2{fill:#4DA782;}
</style>
<title>Flasker</title>
<desc>Created with Sketch.</desc>
<g>
	<path class="st0" d="M12.3,10.9l4,45.9c0,0.7,4.4,0.6,11.2,0.6s11.2,0.1,11.2-0.6l4-45.9C42.7,10.9,12.3,10.9,12.3,10.9z"/>
</g>
<path class="st1" d="M22,19.3h-2.1H13l3.3,37.5c0,0.7,4.5,0.6,11.3,0.6c6.8,0,11.1,0.1,11.1-0.6L42,19.3H22z"/>
<polygon class="st2" points="31.2,54.9 26,19.3 23.9,19.3 29.1,55.2 "/>
<polygon class="st2" points="19.4,1.2 17.3,1.5 19.9,19.3 22,19.3 "/>
</svg>
